<svg width="1000" height="100" viewBox="0 0 1000 100" fill="none" xmlns="http://www.w3.org/2000/svg">
<g filter="url(#filter0_d)">
<path d="M421.9 6.5C444.5 4 473.4 6.9 497.4 11.8C521 16.7 568.3 35.3 597.9 47.5C673.7 79.7 731.6 92 790.5 97.2C814.1 99.3 839.2 100.7 893.9 94.7C948.6 88.7 1000.1 69.1 1000.1 69.1V0H0V30.3C0 30.3 72 62.9 158.4 60.8C197.6 60.1 251.2 54.1 292.4 38.4C313.6 30.3 344.6 20.2 372.1 14.2C399.3 7.9 411.6 7.5 421.9 6.5Z" fill="#CACFD9"/>
</g>
<defs>
<filter id="filter0_d" x="-4" y="0" width="1008.1" height="107.002" filterUnits="userSpaceOnUse" color-interpolation-filters="sRGB">
<feFlood flood-opacity="0" result="BackgroundImageFix"/>
<feColorMatrix in="SourceAlpha" type="matrix" values="0 0 0 0 0 0 0 0 0 0 0 0 0 0 0 0 0 0 127 0" result="hardAlpha"/>
<feOffset dy="4"/>
<feGaussianBlur stdDeviation="2"/>
<feComposite in2="hardAlpha" operator="out"/>
<feColorMatrix type="matrix" values="0 0 0 0 0 0 0 0 0 0 0 0 0 0 0 0 0 0 0.25 0"/>
<feBlend mode="normal" in2="BackgroundImageFix" result="effect1_dropShadow"/>
<feBlend mode="normal" in="SourceGraphic" in2="effect1_dropShadow" result="shape"/>
</filter>
</defs>
</svg>
